<svg width="16" height="20" viewBox="0 0 16 20" fill="none" xmlns="http://www.w3.org/2000/svg">
<path d="M5.92016 14.0768C3.19478 12.3016 3.19478 7.83938 5.92016 6.06415C8.64557 4.28892 12.0708 6.52001 12.0708 10.0705C12.0708 13.6209 8.64553 15.852 5.92016 14.0768ZM2.5252 14.7028C2.38057 14.419 2.17857 14.2906 1.94022 14.186L0 15.2768L0.0100508 15.6744L1.99377 16.7483L2.70818 16.1822H8.88363C10.3238 15.8229 11.0264 15.2896 11.6188 14.6742C11.8222 14.4483 12.1768 14.4347 12.1766 14.6791L12.1901 16.9711C11.5772 17.7371 11.5744 17.5756 11.8543 18.2138L12.4911 19.6785C12.7324 20.1571 12.9714 20.0016 13.0066 19.8453L13.7868 18.0705C14.1368 17.4086 13.495 17.4257 13.4349 16.9785V9.71821C13.3742 8.56997 13.4285 7.85743 11.8821 5.63079C11.926 5.52056 11.9863 5.41845 12.0785 5.33216H13.2921C13.6117 5.67446 13.8819 6.06614 14.2058 5.83333L15.8623 4.81458C16.0445 4.69251 16.0629 4.56497 15.8141 4.42833L14.2205 3.46642C13.767 3.2054 13.7242 3.47817 13.3278 3.87884H7.22378C6.48286 3.97099 5.40561 4.44067 4.1092 5.55724C4.01464 5.63872 3.78001 5.68341 3.72194 5.46981L3.73861 3.2788C3.69414 2.87704 4.35798 2.6822 4.19878 2.14161L3.27645 0.15923C3.17087 -0.0828402 3.06433 -0.0282309 2.96617 0.184386L1.95794 2.27056C2.10117 2.62845 2.30009 2.81927 2.51186 2.9631V10.9381C2.54614 11.9365 3.36869 13.6532 4.08251 14.3506L3.96435 14.6765C3.76957 14.805 3.0117 14.8325 2.5252 14.7028Z" fill="white"/>
</svg>
