<svg width="19" height="20" viewBox="0 0 19 20" fill="none" xmlns="http://www.w3.org/2000/svg">
<g clip-path="url(#clip0_102_205)">
<path d="M14.5469 0H4.45312C1.99373 0 0 2.09867 0 4.6875V15.3125C0 17.9013 1.99373 20 4.45312 20H14.5469C17.0063 20 19 17.9013 19 15.3125V4.6875C19 2.09867 17.0063 0 14.5469 0Z" fill="white"/>
<path d="M14.5469 0H4.45312C1.99373 0 0 2.09867 0 4.6875V15.3125C0 17.9013 1.99373 20 4.45312 20H14.5469C17.0063 20 19 17.9013 19 15.3125V4.6875C19 2.09867 17.0063 0 14.5469 0Z" fill="#0A66C2"/>
<path d="M13.7093 17.0066H15.8817C15.9604 17.0066 16.0359 16.9737 16.0916 16.9151C16.1473 16.8566 16.1786 16.7771 16.1786 16.6942L16.1797 11.8628C16.1797 9.33758 15.6628 7.39656 12.8593 7.39656C11.7936 7.35484 10.7886 7.93313 10.2463 8.89875C10.2436 8.90344 10.2396 8.90709 10.2348 8.90914C10.23 8.91119 10.2247 8.91153 10.2197 8.9101C10.2147 8.90867 10.2102 8.90556 10.2071 8.90124C10.2039 8.89692 10.2022 8.89163 10.2021 8.88617V7.94219C10.2021 7.85931 10.1708 7.77982 10.1152 7.72122C10.0595 7.66261 9.98397 7.62969 9.90523 7.62969H7.84366C7.76492 7.62969 7.68941 7.66261 7.63374 7.72122C7.57806 7.77982 7.54678 7.85931 7.54678 7.94219V16.6937C7.54678 16.7766 7.57806 16.8561 7.63374 16.9147C7.68941 16.9733 7.76492 17.0062 7.84366 17.0062H10.0159C10.0946 17.0062 10.1701 16.9733 10.2258 16.9147C10.2815 16.8561 10.3128 16.7766 10.3128 16.6937V12.3677C10.3128 11.1445 10.5332 9.95992 11.9739 9.95992C13.394 9.95992 13.4124 11.3596 13.4124 12.447V16.6941C13.4124 16.777 13.4437 16.8565 13.4994 16.9151C13.5551 16.9737 13.6306 17.0066 13.7093 17.0066ZM2.82031 4.65836C2.82031 5.58531 3.54521 6.34797 4.42581 6.34797C5.3062 6.34789 6.03064 5.58477 6.03064 4.65805C6.0305 3.73133 5.30597 2.96875 4.42552 2.96875C3.54484 2.96875 2.82031 3.73148 2.82031 4.65836ZM3.3368 17.0066H5.51193C5.59067 17.0066 5.66618 16.9737 5.72185 16.9151C5.77753 16.8565 5.8088 16.777 5.8088 16.6941V7.94219C5.8088 7.85931 5.77753 7.77982 5.72185 7.72122C5.66618 7.66261 5.59067 7.62969 5.51193 7.62969H3.3368C3.25806 7.62969 3.18255 7.66261 3.12688 7.72122C3.0712 7.77982 3.03993 7.85931 3.03993 7.94219V16.6941C3.03993 16.777 3.0712 16.8565 3.12688 16.9151C3.18255 16.9737 3.25806 17.0066 3.3368 17.0066Z" fill="white"/>
</g>
<defs>
<clipPath id="clip0_102_205">
<rect width="19" height="20" fill="white"/>
</clipPath>
</defs>
</svg>
