<svg width="19" height="20" viewBox="0 0 19 20" fill="none" xmlns="http://www.w3.org/2000/svg">
<g clip-path="url(#clip0_102_195)">
<path d="M14.5469 0H4.45312C1.99373 0 0 2.09867 0 4.6875V15.3125C0 17.9013 1.99373 20 4.45312 20H14.5469C17.0063 20 19 17.9013 19 15.3125V4.6875C19 2.09867 17.0063 0 14.5469 0Z" fill="url(#paint0_radial_102_195)"/>
<path d="M14.5469 0H4.45312C1.99373 0 0 2.09867 0 4.6875V15.3125C0 17.9013 1.99373 20 4.45312 20H14.5469C17.0063 20 19 17.9013 19 15.3125V4.6875C19 2.09867 17.0063 0 14.5469 0Z" fill="url(#paint1_radial_102_195)"/>
<path d="M9.50067 2.1875C7.48504 2.1875 7.23202 2.1968 6.44041 2.23469C5.65027 2.27281 5.11093 2.40445 4.63904 2.59766C4.15083 2.79719 3.73677 3.06414 3.32426 3.49852C2.91138 3.93281 2.65777 4.36867 2.46763 4.88234C2.28356 5.37922 2.15836 5.94719 2.1228 6.77852C2.0874 7.61188 2.07812 7.87828 2.07812 10.0001C2.07812 12.1219 2.08703 12.3873 2.12295 13.2206C2.15932 14.0523 2.28438 14.6201 2.46777 15.1168C2.65748 15.6307 2.91108 16.0666 3.32374 16.5008C3.73617 16.9354 4.15024 17.203 4.63808 17.4025C5.11033 17.5957 5.64975 17.7273 6.43974 17.7655C7.23143 17.8034 7.48422 17.8127 9.49978 17.8127C11.5156 17.8127 11.7678 17.8034 12.5594 17.7655C13.3496 17.7273 13.8895 17.5957 14.3618 17.4025C14.8498 17.203 15.2632 16.9354 15.6756 16.5008C16.0885 16.0666 16.342 15.6307 16.5322 15.117C16.7147 14.6201 16.8399 14.0522 16.877 13.2208C16.9126 12.3875 16.9219 12.1219 16.9219 10.0001C16.9219 7.87828 16.9126 7.61203 16.877 6.77867C16.8399 5.94695 16.7147 5.3793 16.5322 4.88258C16.342 4.36867 16.0885 3.93281 15.6756 3.49852C15.2628 3.06398 14.8499 2.79703 14.3613 2.59773C13.8882 2.40445 13.3485 2.27273 12.5584 2.23469C11.7667 2.1968 11.5147 2.1875 9.49837 2.1875H9.50067ZM8.83485 3.59539C9.0325 3.59508 9.253 3.59539 9.50067 3.59539C11.4824 3.59539 11.7172 3.60289 12.4998 3.64031C13.2234 3.67516 13.6162 3.80242 13.8778 3.90938C14.2242 4.05094 14.4711 4.22023 14.7307 4.49375C14.9905 4.76719 15.1512 5.02758 15.2861 5.39219C15.3877 5.66719 15.5088 6.08063 15.5417 6.84234C15.5773 7.66594 15.585 7.91328 15.585 9.99828C15.585 12.0833 15.5773 12.3307 15.5417 13.1542C15.5086 13.9159 15.3877 14.3294 15.2861 14.6045C15.1516 14.9691 14.9905 15.2287 14.7307 15.502C14.4709 15.7754 14.2243 15.9446 13.8778 16.0863C13.6165 16.1937 13.2234 16.3206 12.4998 16.3555C11.7174 16.3929 11.4824 16.401 9.50067 16.401C7.51888 16.401 7.28398 16.3929 6.50164 16.3555C5.778 16.3203 5.38524 16.193 5.12339 16.0861C4.77709 15.9445 4.52964 15.7752 4.26988 15.5018C4.01011 15.2284 3.84936 14.9686 3.7145 14.6038C3.61289 14.3287 3.49184 13.9153 3.45889 13.1536C3.42334 12.33 3.41621 12.0827 3.41621 9.99633C3.41621 7.91008 3.42334 7.66398 3.45889 6.84039C3.49199 6.07867 3.61289 5.66523 3.7145 5.38984C3.84906 5.02523 4.01011 4.76484 4.26995 4.49141C4.52972 4.21797 4.77709 4.04867 5.12347 3.9068C5.38509 3.79938 5.778 3.67242 6.50164 3.63742C7.1863 3.60484 7.45164 3.59508 8.83485 3.59344V3.59539ZM13.4625 4.89258C12.9708 4.89258 12.5718 5.31211 12.5718 5.82977C12.5718 6.34734 12.9708 6.76727 13.4625 6.76727C13.9542 6.76727 14.3531 6.34734 14.3531 5.82977C14.3531 5.31219 13.9542 4.89227 13.4625 4.89227V4.89258ZM9.50067 5.98797C7.39582 5.98797 5.68924 7.78438 5.68924 10.0001C5.68924 12.2158 7.39582 14.0113 9.50067 14.0113C11.6056 14.0113 13.3116 12.2158 13.3116 10.0001C13.3116 7.78445 11.6054 5.98797 9.50052 5.98797H9.50067ZM9.50067 7.39586C10.867 7.39586 11.9747 8.56172 11.9747 10.0001C11.9747 11.4383 10.867 12.6043 9.50067 12.6043C8.1343 12.6043 7.02673 11.4383 7.02673 10.0001C7.02673 8.56172 8.1343 7.39586 9.50067 7.39586Z" fill="white"/>
</g>
<defs>
<radialGradient id="paint0_radial_102_195" cx="0" cy="0" r="1" gradientUnits="userSpaceOnUse" gradientTransform="translate(5.04687 21.5404) rotate(-90) scale(19.8215 17.5138)">
<stop stop-color="#FFDD55"/>
<stop offset="0.1" stop-color="#FFDD55"/>
<stop offset="0.5" stop-color="#FF543E"/>
<stop offset="1" stop-color="#C837AB"/>
</radialGradient>
<radialGradient id="paint1_radial_102_195" cx="0" cy="0" r="1" gradientUnits="userSpaceOnUse" gradientTransform="translate(-3.18257 1.4407) rotate(79.2334) scale(8.84366 34.7617)">
<stop stop-color="#3771C8"/>
<stop offset="0.128" stop-color="#3771C8"/>
<stop offset="1" stop-color="#6600FF" stop-opacity="0"/>
</radialGradient>
<clipPath id="clip0_102_195">
<rect width="19" height="20" fill="white"/>
</clipPath>
</defs>
</svg>
