<svg width="32" height="28" viewBox="0 0 32 28" fill="none" xmlns="http://www.w3.org/2000/svg">
<path d="M8.44446 9.03387H21.7778V23.184H8.44446V9.03387Z" fill="#FCEA2B"/>
<path d="M18.0116 9.03387L14.6667 23.184H21.7778V9.03387H18.0116Z" fill="#F1B31C"/>
<path d="M19.6413 5.9889C19.0795 5.99 18.5358 6.16307 18.1045 6.47812C17.6876 5.72446 16.8449 5.20762 15.8707 5.20685C15.5151 5.20685 15.1773 5.27607 14.8702 5.39973C14.3725 4.80823 13.5991 4.42635 12.728 4.42557C11.4187 4.42479 10.3258 5.28307 10.0631 6.42835C9.90655 6.39221 9.74548 6.37314 9.58356 6.37157C8.42668 6.37079 7.48756 7.24268 7.48668 8.31835L7.48401 11.4353C7.48356 11.8642 7.86045 12.215 8.32134 12.2154H8.74045C9.20134 12.2158 9.57868 11.8654 9.57912 11.4368L9.57956 10.8146C9.83625 10.9647 10.1375 11.0458 10.4462 11.048L11.2702 11.0483C11.8049 11.0487 12.2773 10.8096 12.5853 10.4448C13.0409 11.0448 13.7907 11.44 14.6365 11.4403C16.0191 11.4415 17.152 10.3903 17.1529 9.10429L22.0067 9.10779C22.1 8.86396 22.1533 8.60223 22.1533 8.32846C22.1551 7.03735 21.0302 5.98968 19.6413 5.9889Z" fill="white"/>
<path d="M8.80308 9.64757C8.80397 8.60185 9.74308 7.75485 10.9 7.75562C11.0653 7.75562 11.2244 7.7774 11.3795 7.81007C11.6417 6.69785 12.7351 5.86368 14.0449 5.86446C14.9155 5.86523 15.6889 6.23623 16.1862 6.81101C16.5009 6.68734 16.8421 6.62358 17.1871 6.62396C18.1613 6.62474 19.004 7.12679 19.4204 7.85907C19.8558 7.55169 20.3983 7.38399 20.9577 7.38385C21.1933 7.38385 21.42 7.41535 21.636 7.47018C21.2942 6.58351 20.3635 5.94573 19.2653 5.94457C18.706 5.9448 18.1637 6.1125 17.7284 6.41979C17.3115 5.6879 16.4689 5.18546 15.4946 5.18507C15.1391 5.18468 14.8013 5.25196 14.4942 5.37173C13.9964 4.79735 13.2231 4.42596 12.352 4.42557C11.0426 4.42479 9.9493 5.25896 9.68708 6.37157C9.53032 6.33653 9.36931 6.31812 9.20753 6.31673C8.05064 6.31596 7.11153 7.16296 7.11064 8.20829L7.10797 11.2377C7.10753 11.6538 7.48442 11.9949 7.94531 11.9953H8.36442C8.52442 11.9957 8.6733 11.9525 8.80086 11.8813L8.80308 9.64757Z" fill="white"/>
<path d="M20.516 20.2133H23.1827C24.1604 20.2133 24.9604 19.5133 24.9604 18.6578V13.2133C24.9604 12.3578 24.1604 11.6578 23.1827 11.6578H20.516" stroke="black" stroke-width="2" stroke-miterlimit="10" stroke-linecap="round" stroke-linejoin="round"/>
<path d="M15.6689 9.60834H20.2938V23.9078H7.40491V15.9881" stroke="black" stroke-width="2.018" stroke-miterlimit="10" stroke-linecap="round" stroke-linejoin="round"/>
<path d="M7.51689 12.7513C7.85156 12.6494 8.09467 12.3554 8.09511 12.0113L8.09556 11.3894C8.35229 11.5394 8.65355 11.6204 8.96222 11.6224L9.78622 11.6228C10.3209 11.6232 10.7933 11.384 11.1013 11.0192C11.5569 11.6193 12.3067 12.0144 13.1524 12.0148C14.5351 12.0159 15.668 10.9648 15.6689 9.67872L20.5227 9.68222C20.616 9.43839 20.6693 9.17667 20.6693 8.90289C20.6707 7.61178 19.5462 6.56411 18.1573 6.56333C17.5955 6.56443 17.0518 6.73751 16.6204 7.05256C16.2036 6.29889 15.3609 5.78206 14.3867 5.78167C14.0311 5.78128 13.6933 5.8505 13.3862 5.97417C12.8884 5.38267 12.1151 5.00078 11.244 5C9.93467 4.99922 8.84178 5.8575 8.57911 7.00278C8.42254 6.96664 8.26147 6.94757 8.09956 6.946C6.94267 6.94522 6.00356 7.81711 6.00267 8.89278L6 12.0101C5.99956 12.4387 6.37644 12.7894 6.83733 12.7898H7.25644C7.34711 12.7898 7.43422 12.7766 7.51644 12.7513" stroke="black" stroke-width="2" stroke-miterlimit="10" stroke-linecap="round" stroke-linejoin="round"/>
</svg>
